<svg width="120" height="58" viewBox="0 0 120 58" fill="none" xmlns="http://www.w3.org/2000/svg">
<path d="M59.9639 22.4043C59.9639 21.5742 59.6709 20.9395 59.085 20.5C58.499 20.0508 57.4443 19.582 55.9209 19.0938C54.3975 18.5957 53.1914 18.1074 52.3027 17.6289C49.8809 16.3203 48.6699 14.5576 48.6699 12.3408C48.6699 11.1885 48.9922 10.1631 49.6367 9.26465C50.291 8.35645 51.2236 7.64844 52.4346 7.14062C53.6553 6.63281 55.0225 6.37891 56.5361 6.37891C58.0596 6.37891 59.417 6.65723 60.6084 7.21387C61.7998 7.76074 62.7227 8.53711 63.377 9.54297C64.041 10.5488 64.373 11.6914 64.373 12.9707H59.9785C59.9785 11.9941 59.6709 11.2373 59.0557 10.7002C58.4404 10.1533 57.5762 9.87988 56.4629 9.87988C55.3887 9.87988 54.5537 10.1094 53.958 10.5684C53.3623 11.0176 53.0645 11.6133 53.0645 12.3555C53.0645 13.0488 53.4111 13.6299 54.1045 14.0986C54.8076 14.5674 55.8379 15.0068 57.1953 15.417C59.6953 16.1689 61.5166 17.1016 62.6592 18.2148C63.8018 19.3281 64.373 20.7148 64.373 22.375C64.373 24.2207 63.6748 25.6709 62.2783 26.7256C60.8818 27.7705 59.002 28.293 56.6387 28.293C54.998 28.293 53.5039 27.9951 52.1562 27.3994C50.8086 26.7939 49.7783 25.9688 49.0654 24.9238C48.3623 23.8789 48.0107 22.668 48.0107 21.291H52.4199C52.4199 23.6445 53.8262 24.8213 56.6387 24.8213C57.6836 24.8213 58.499 24.6113 59.085 24.1914C59.6709 23.7617 59.9639 23.166 59.9639 22.4043ZM84.7197 28H80.3252V18.8594H71.7559V28H67.3613V6.67188H71.7559V15.3145H80.3252V6.67188H84.7197V28ZM93.2451 28H88.8506V6.67188H93.2451V28ZM101.727 20.4854V28H97.332V6.67188H105.652C107.254 6.67188 108.66 6.96484 109.871 7.55078C111.092 8.13672 112.029 8.97168 112.684 10.0557C113.338 11.1299 113.665 12.3555 113.665 13.7324C113.665 15.8223 112.947 17.4727 111.512 18.6836C110.086 19.8848 108.108 20.4854 105.579 20.4854H101.727ZM101.727 16.9258H105.652C106.814 16.9258 107.698 16.6523 108.304 16.1055C108.919 15.5586 109.227 14.7773 109.227 13.7617C109.227 12.7168 108.919 11.8721 108.304 11.2275C107.688 10.583 106.839 10.251 105.755 10.2314H101.727V16.9258Z" fill="#0B8793"/>
<path d="M61.1367 46.3604C60.917 48.2402 60.2212 49.6929 59.0493 50.7183C57.8856 51.7355 56.3353 52.2441 54.3984 52.2441C52.2988 52.2441 50.6143 51.4914 49.3447 49.9858C48.0833 48.4803 47.4526 46.4661 47.4526 43.9434V42.2344C47.4526 40.5824 47.7456 39.1297 48.3315 37.8765C48.9256 36.6232 49.7638 35.6629 50.8462 34.9956C51.9285 34.3201 53.1818 33.9824 54.606 33.9824C56.494 33.9824 58.0076 34.5114 59.147 35.5693C60.2863 36.6191 60.9495 38.0758 61.1367 39.9395H58.7808C58.5773 38.5234 58.1338 37.498 57.4502 36.8633C56.7747 36.2285 55.8267 35.9111 54.606 35.9111C53.1086 35.9111 51.9326 36.4645 51.0781 37.5713C50.2318 38.6781 49.8086 40.2528 49.8086 42.2954V44.0166C49.8086 45.9453 50.2114 47.4793 51.0171 48.6187C51.8228 49.758 52.9499 50.3276 54.3984 50.3276C55.7005 50.3276 56.6974 50.0347 57.3892 49.4487C58.089 48.8547 58.5529 47.8252 58.7808 46.3604H61.1367ZM70.8657 44.8101H66.6909V52H64.335V34.2266H70.2188C72.2207 34.2266 73.7588 34.6823 74.833 35.5938C75.9154 36.5052 76.4565 37.8317 76.4565 39.5732C76.4565 40.68 76.1554 41.6444 75.5532 42.4663C74.9591 43.2882 74.1291 43.9027 73.063 44.3096L77.2378 51.8535V52H74.7231L70.8657 44.8101ZM66.6909 42.8936H70.292C71.4557 42.8936 72.3794 42.5924 73.063 41.9902C73.7547 41.388 74.1006 40.5824 74.1006 39.5732C74.1006 38.4746 73.771 37.6323 73.1118 37.0464C72.4608 36.4604 71.5168 36.1634 70.2798 36.1553H66.6909V42.8936ZM89.7988 43.7847H82.0962V50.0835H91.0439V52H79.7524V34.2266H90.9219V36.1553H82.0962V41.8682H89.7988V43.7847ZM97.7944 46.397L98.1362 48.7407L98.6367 46.6289L102.152 34.2266H104.13L107.56 46.6289L108.048 48.7773L108.427 46.3848L111.186 34.2266H113.542L109.232 52H107.096L103.434 39.0483L103.153 37.6934L102.873 39.0483L99.0762 52H96.9399L92.6431 34.2266H94.9868L97.7944 46.397Z" fill="#360033"/>
<path d="M36.0005 46C33.2208 46 30.4411 45.06 28.0014 43.36C23.122 46.78 16.8827 46.78 12.0033 43.36C9.56355 45.06 6.78387 46 4.00419 46H0.00465958V50H4.00419C6.76387 50 9.48355 49.3 12.0033 48.02C17.0427 50.6 22.962 50.6 28.0014 48.02C30.5211 49.32 33.2408 50 36.0005 50H40V46H36.0005ZM3.90421 42H4.00419C7.20382 42 10.0435 40.24 12.0033 38C13.963 40.24 16.8027 42 20.0023 42C23.202 42 26.0416 40.24 28.0014 38C29.9612 40.24 32.8008 42 36.0005 42H36.1005L39.88 28.64C40.04 28.12 40 27.56 39.76 27.08C39.5201 26.6 39.0801 26.24 38.5602 26.08L36.0005 25.24V16C36.0005 13.8 34.2007 12 32.0009 12H26.0016V6H14.003V12H8.00373C5.80398 12 4.00419 13.8 4.00419 16V25.24L1.42449 26.08C0.904555 26.24 0.464606 26.6 0.224634 27.08C-0.0153383 27.56 -0.0753312 28.12 0.104648 28.64L3.90421 42ZM8.00373 16H32.0009V23.94L20.0023 20L8.00373 23.94V16Z" fill="#0B8793"/>
</svg>
